<svg width="236" height="236" viewBox="0 0 236 236" fill="none" xmlns="http://www.w3.org/2000/svg">
<path fill-rule="evenodd" clip-rule="evenodd" d="M216.334 118C216.334 172.308 172.308 216.333 118 216.333C63.6923 216.333 19.667 172.308 19.667 118C19.667 63.6921 63.6923 19.6667 118 19.6667C172.308 19.6667 216.334 63.6921 216.334 118ZM147.5 88.5001C147.5 104.793 134.293 118 118 118C101.707 118 88.5003 104.793 88.5003 88.5001C88.5003 72.2077 101.707 59.0001 118 59.0001C134.293 59.0001 147.5 72.2077 147.5 88.5001ZM118 201.583C135.543 201.583 151.824 196.179 165.268 186.944C171.207 182.865 173.744 175.094 170.292 168.772C163.135 155.665 148.387 147.5 117.999 147.5C87.6123 147.5 72.865 155.664 65.708 168.772C62.2557 175.094 64.7931 182.864 70.7311 186.943C84.1754 196.178 100.457 201.583 118 201.583Z" fill="#FFBB80"/>
<path opacity="0.503384" d="M115.798 75.6868C115.728 72.9361 114.446 70.4194 114.061 67.7335C113.05 60.6946 114.929 37.9951 127.262 37.9951C140.054 37.9951 126.988 68.2907 123.787 74.1308C123.484 74.6841 120.878 78.1938 121.182 78.7993C121.31 79.0532 122.361 77.4591 122.398 77.4158C123.647 75.9651 125.154 74.5557 126.567 73.2662C130.421 69.7487 154.662 48.1865 160.19 62.2255C162.326 67.6496 156.601 73.2524 152.447 76.2052C148.12 79.2824 142.305 80.0382 137.509 82.0842C135.549 82.9206 133.612 83.4928 131.604 84.1586C131.043 84.3449 129.866 83.9169 129.866 84.5045C129.866 84.5977 132.401 83.6151 135.078 82.9485C139.397 81.8736 156.454 82.2888 162.157 86.8134C167.86 91.3381 167.86 95.3298 164.217 98.2652C155.652 105.165 146.297 99.5535 138.03 96.2621C135.984 95.4468 133.776 95.3545 131.778 94.3598C131.647 94.295 129.172 93.0306 129.172 93.4955C129.172 93.8308 134.238 94.2541 136.988 96.2621C144.876 102.019 155.661 124.881 146.889 130.323C137.522 136.134 124.367 110.961 123.44 108.192C122.958 106.752 123.209 105.311 122.919 103.869C122.79 103.225 122.398 101.31 122.398 101.967C122.398 110.595 124.407 126.095 118.403 132.57C114.619 136.651 107.714 137.447 105.723 130.841C103.862 124.666 104.786 114.795 107.287 108.883C108.173 106.788 112.166 101.841 111.976 101.276C111.727 100.531 110.117 102.939 110.065 103.005C108.232 105.351 106.148 107.715 103.812 109.575C101.821 111.16 99.3497 112.035 97.2117 113.379C91.7394 116.819 82.5572 122.899 77.2371 115.108C72.5145 108.192 90.654 94.3513 99.2967 92.6308C101.696 92.1533 104.641 91.2417 107.113 91.5936C107.856 91.6993 107.482 91.6795 107.807 92.112C109.597 94.4869 97.4304 93.7895 96.5172 93.6684C88.0782 92.5482 68.6851 94.4841 69.4207 82.7756C70.2345 69.8229 94.0734 77.758 97.2117 78.7993C102.326 80.4958 106.609 83.5941 103.291 81.3925C97.8014 77.7487 73.6508 57.2589 87.0948 46.524C96.5022 39.0128 114.929 72.8166 114.929 77.0703" stroke="white" stroke-width="10.4" stroke-linecap="round" stroke-linejoin="round"/>
<path d="M111.566 82.9145C115.003 77.5462 121.858 78.3672 126.633 81.1888C134.453 85.8107 126.215 101.284 114.369 99.8261C103.721 98.5151 105.067 81.1941 115.595 77.7378" stroke="white" stroke-width="10.4" stroke-linecap="round" stroke-linejoin="round"/>
</svg>
